<svg width="24" height="21" viewBox="0 0 24 21" fill="none" xmlns="http://www.w3.org/2000/svg">
<path d="M23.0588 0.65998C22.9329 0.551275 22.7797 0.47898 22.6158 0.450882C22.4519 0.422784 22.2834 0.439949 22.1285 0.500526L1.54581 8.55545C1.25411 8.66888 1.00715 8.874 0.842108 9.13993C0.67707 9.40586 0.602886 9.71821 0.630726 10.0299C0.658566 10.3417 0.786923 10.6359 0.996472 10.8684C1.20602 11.1009 1.48542 11.259 1.79261 11.319L7.12565 12.3661V18.3126C7.1246 18.6365 7.22086 18.9532 7.40194 19.2218C7.58303 19.4903 7.8406 19.6983 8.14128 19.8187C8.44149 19.9413 8.77164 19.9707 9.0888 19.9032C9.40596 19.8356 9.69545 19.6742 9.91964 19.4399L12.4912 16.7729L16.571 20.3438C16.8653 20.6049 17.2449 20.7494 17.6384 20.7501C17.8108 20.7499 17.9821 20.7228 18.1462 20.6698C18.4143 20.5848 18.6554 20.431 18.8455 20.2237C19.0356 20.0165 19.1682 19.763 19.2299 19.4887L23.3523 1.55474C23.3892 1.39301 23.3813 1.22428 23.3296 1.06666C23.2779 0.909032 23.1843 0.76845 23.0588 0.65998ZM16.8492 4.31623L7.75026 10.8325L2.71276 9.84428L16.8492 4.31623ZM8.75065 18.3126V13.4904L11.2684 15.6983L8.75065 18.3126ZM17.6404 19.1251L9.24323 11.7618L21.3292 3.09951L17.6404 19.1251Z" fill="#CDCFD7"/>
</svg>
