<svg width="22" height="22" viewBox="0 0 22 22" fill="none" xmlns="http://www.w3.org/2000/svg">
<path d="M17.0514 12.7103L13.8014 11.0853C13.6735 11.0216 13.531 10.9927 13.3884 11.0016C13.2457 11.0105 13.1079 11.0569 12.9889 11.1361L11.497 12.1314C10.8121 11.7549 10.2485 11.1913 9.87199 10.5064L10.8673 9.01445C10.9465 8.89546 10.9929 8.75768 11.0018 8.61502C11.0107 8.47237 10.9818 8.32988 10.9181 8.20195L9.29309 4.95195C9.22573 4.81593 9.12162 4.7015 8.99256 4.62162C8.86349 4.54174 8.71464 4.49961 8.56285 4.5C7.48541 4.5 6.4521 4.92801 5.69023 5.68988C4.92836 6.45175 4.50035 7.48506 4.50035 8.5625C4.50304 10.932 5.44553 13.2038 7.12105 14.8793C8.79658 16.5548 11.0683 17.4973 13.4379 17.5C13.9713 17.5 14.4996 17.3949 14.9925 17.1908C15.4854 16.9866 15.9332 16.6874 16.3105 16.3101C16.6877 15.9329 16.987 15.485 17.1911 14.9922C17.3953 14.4993 17.5004 13.971 17.5004 13.4375C17.5005 13.2866 17.4585 13.1386 17.3792 13.0101C17.2999 12.8817 17.1864 12.7779 17.0514 12.7103ZM13.4379 15.875C11.4991 15.8728 9.6404 15.1017 8.26951 13.7308C6.89862 12.36 6.1275 10.5012 6.12535 8.5625C6.1252 7.99895 6.32032 7.45275 6.67751 7.01686C7.0347 6.58097 7.5319 6.28232 8.08449 6.17172L9.25043 8.50766L8.25816 9.98438C8.18402 10.0956 8.13846 10.2234 8.12552 10.3565C8.11259 10.4895 8.13268 10.6237 8.18402 10.7471C8.76535 12.1287 9.86449 13.2279 11.2461 13.8092C11.3699 13.8628 11.5051 13.8848 11.6395 13.8731C11.7739 13.8614 11.9033 13.8164 12.016 13.7422L13.4998 12.753L15.8357 13.9189C15.7243 14.4721 15.4243 14.9696 14.987 15.3263C14.5497 15.683 14.0022 15.8769 13.4379 15.875ZM11.0004 0.4375C9.17676 0.437102 7.38414 0.90884 5.79695 1.8068C4.20977 2.70475 2.8821 3.99833 1.94318 5.56163C1.00426 7.12493 0.486076 8.90469 0.439059 10.7277C0.392042 12.5507 0.817797 14.3548 1.67488 15.9644L0.522149 19.4226C0.426665 19.7089 0.412808 20.0162 0.482131 20.3099C0.551455 20.6037 0.701219 20.8723 0.914639 21.0857C1.12806 21.2991 1.3967 21.4489 1.69045 21.5182C1.9842 21.5875 2.29146 21.5737 2.57777 21.4782L6.03598 20.3255C7.45254 21.0789 9.02213 21.4997 10.6256 21.556C12.2291 21.6123 13.8243 21.3025 15.2902 20.6502C16.7561 19.9979 18.0541 19.0202 19.0858 17.7914C20.1174 16.5625 20.8555 15.1148 21.2441 13.5581C21.6327 12.0014 21.6615 10.3766 21.3284 8.8071C20.9953 7.23759 20.309 5.76459 19.3216 4.49991C18.3342 3.23524 17.0717 2.21212 15.6299 1.50823C14.1881 0.804332 12.6048 0.438158 11.0004 0.4375ZM11.0004 19.9375C9.42916 19.9386 7.88553 19.5248 6.52551 18.738C6.42593 18.6803 6.31522 18.6444 6.20071 18.6326C6.0862 18.6209 5.97051 18.6336 5.86129 18.67L2.06285 19.9375L3.32934 16.1391C3.36584 16.0299 3.37875 15.9143 3.36719 15.7998C3.35564 15.6852 3.31988 15.5745 3.26231 15.4748C2.27712 13.7716 1.88157 11.7907 2.13702 9.83971C2.39247 7.88867 3.28464 6.07647 4.67513 4.68423C6.06562 3.29198 7.87669 2.39752 9.8274 2.13961C11.7781 1.88169 13.7594 2.27474 15.464 3.25777C17.1685 4.24081 18.501 5.75888 19.2547 7.57648C20.0084 9.39409 20.1413 11.4096 19.6326 13.3104C19.1239 15.2112 18.0022 16.891 16.4414 18.0893C14.8806 19.2875 12.968 19.9372 11.0004 19.9375Z" fill="#CDCFD7"/>
</svg>
